<?xml version="1.0" encoding="utf-8"?>
<!-- Generator: Adobe Illustrator 21.1.0, SVG Export Plug-In . SVG Version: 6.00 Build 0)  -->
<svg version="1.1" id="Layer_1" xmlns="http://www.w3.org/2000/svg" xmlns:xlink="http://www.w3.org/1999/xlink" x="0px" y="0px"
	 viewBox="0 0 1366 768" style="enable-background:new 0 0 1366 768;" xml:space="preserve">
<style type="text/css">
	.st0{opacity:0.18;}
	.st1{fill:url(#SVGID_1_);}
	.st2{fill:url(#SVGID_2_);}
	.st3{fill:url(#SVGID_3_);}
	.st4{fill:url(#SVGID_4_);}
	.st5{fill:url(#SVGID_5_);}
	.st6{display:none;fill:url(#SVGID_6_);}
</style>
<g class="st0">
	<g>
		<linearGradient id="SVGID_1_" gradientUnits="userSpaceOnUse" x1="630.4537" y1="535.1215" x2="630.4537" y2="275.2819">
			<stop  offset="0" style="stop-color:#0154A4"/>
			<stop  offset="1" style="stop-color:#00A7EA"/>
		</linearGradient>
		<path class="st1" d="M596.6,431.2l112.9-154.1c-10.3-1.3-20.5-1.9-30.4-1.8c-41.4-0.2-87.1,10.5-127.8,38.4
			c10.2,80.9,31.7,140.2,81.8,185.3c-2.7,13.6-2.7,13.1-6.3,36.1l46.2-114L596.6,431.2z"/>
		<linearGradient id="SVGID_2_" gradientUnits="userSpaceOnUse" x1="728.2961" y1="531.9114" x2="728.2961" y2="248.536">
			<stop  offset="0" style="stop-color:#F16220"/>
			<stop  offset="1" style="stop-color:#FDB309"/>
		</linearGradient>
		<path class="st2" d="M732.9,248.5l-51.8,125.5l84.5-13.5l-115.9,152c9,6.8,18.8,13.2,29.5,19.3c84-48.2,114.9-116,127.8-218.2
			c-25.2-17.3-52.4-28-79.3-33.5C729.8,267.6,729.5,272.4,732.9,248.5z"/>
		<g>
			<linearGradient id="SVGID_3_" gradientUnits="userSpaceOnUse" x1="839.4559" y1="553.1901" x2="839.4559" y2="357.1452">
				<stop  offset="0" style="stop-color:#F16220"/>
				<stop  offset="1" style="stop-color:#FDB309"/>
			</linearGradient>
			<path class="st3" d="M903,405.5v-48.4h-92c-7.4,36.7-18.4,68.3-35.1,95.8v100.3H903v-48.8h-75.6v-28.1h62.3v-43.4h-62.3v-27.4
				H903z"/>
			<linearGradient id="SVGID_4_" gradientUnits="userSpaceOnUse" x1="776.1125" y1="363.2539" x2="776.1125" y2="362.7273">
				<stop  offset="0" style="stop-color:#F16220"/>
				<stop  offset="1" style="stop-color:#FDB309"/>
			</linearGradient>
			<polygon class="st4" points="775.9,363.3 776.3,362.7 775.9,362.8 			"/>
		</g>
	</g>
	<g>
		<linearGradient id="SVGID_5_" gradientUnits="userSpaceOnUse" x1="489.0943" y1="394.3488" x2="489.0943" y2="168.3523">
			<stop  offset="0" style="stop-color:#0154A4"/>
			<stop  offset="1" style="stop-color:#00A7EA"/>
		</linearGradient>
		<path class="st5" d="M540.6,309.4c8.2-5.6,16.6-10.5,25.1-14.8c-9.7-15.4-26.6-27-48.1-36c-23.7-10-39.3-13.2-39.3-23.3
			c0-7.5,8.6-13.6,20.6-13.6c10.5,0,27.4,5,33.9,16.6l33.7-32.4c-8.6-21.7-34.8-37.5-68.3-37.5c-41.7,0-77.8,27.1-77.8,65.2
			c0,33.1,23.9,51.4,51.7,63.4c21.5,9.5,44,19.5,44,30.8c0,9-12.1,13.5-24.5,13.5c-18.4,0-35.4-8.2-44.6-21.7l-35.3,34.6
			c11,24.3,43.9,40.2,80,40.2c23.4,0,45.4-7.4,60.9-20.6C547.4,354,543.5,332.6,540.6,309.4z"/>
		<linearGradient id="SVGID_6_" gradientUnits="userSpaceOnUse" x1="728.2961" y1="531.9114" x2="728.2961" y2="248.536">
			<stop  offset="0" style="stop-color:#F16220"/>
			<stop  offset="1" style="stop-color:#FDB309"/>
		</linearGradient>
		<path class="st6" d="M732.9,248.5l-51.8,125.5l84.5-13.5l-115.9,152c9,6.8,18.8,13.2,29.5,19.3c84-48.2,114.9-116,127.8-218.2
			c-25.2-17.3-52.4-28-79.3-33.5C729.8,267.6,729.5,272.4,732.9,248.5z"/>
	</g>
</g>
</svg>
